<?xml version="1.0" encoding="UTF-8" standalone="no"?>
<!DOCTYPE svg PUBLIC "-//W3C//DTD SVG 1.1//EN"
 "http://www.w3.org/Graphics/SVG/1.1/DTD/svg11.dtd">
<!-- Generated by graphviz version 2.42.3 (20191010.1750)
 -->
<!-- Title: %3 Pages: 1 -->
<svg width="162pt" height="249pt"
 viewBox="0.00 0.00 162.00 249.42" xmlns="http://www.w3.org/2000/svg" xmlns:xlink="http://www.w3.org/1999/xlink">
<g id="graph0" class="graph" transform="scale(1 1) rotate(0) translate(4 245.42)">
<title>%3</title>
<polygon fill="white" stroke="transparent" points="-4,4 -4,-245.42 158,-245.42 158,4 -4,4"/>
<g id="clust1" class="cluster">
<title>cluster5</title>
<path fill="none" stroke="black" d="M35,-124.71C35,-124.71 119,-124.71 119,-124.71 125,-124.71 131,-130.71 131,-136.71 131,-136.71 131,-221.42 131,-221.42 131,-227.42 125,-233.42 119,-233.42 119,-233.42 35,-233.42 35,-233.42 29,-233.42 23,-227.42 23,-221.42 23,-221.42 23,-136.71 23,-136.71 23,-130.71 29,-124.71 35,-124.71"/>
<text text-anchor="middle" x="119.5" y="-131.51" font-family="Times,serif" font-size="14.00">5</text>
</g>
<g id="clust2" class="cluster">
<title>cluster10 x 5</title>
<path fill="none" stroke="black" d="M20,-8C20,-8 134,-8 134,-8 140,-8 146,-14 146,-20 146,-20 146,-104.71 146,-104.71 146,-110.71 140,-116.71 134,-116.71 134,-116.71 20,-116.71 20,-116.71 14,-116.71 8,-110.71 8,-104.71 8,-104.71 8,-20 8,-20 8,-14 14,-8 20,-8"/>
<text text-anchor="middle" x="120.5" y="-14.8" font-family="Times,serif" font-size="14.00">10 x 5</text>
</g>
<!-- frac -->
<g id="node1" class="node">
<title>frac</title>
<ellipse fill="none" stroke="black" cx="77" cy="-190.07" rx="46.5" ry="35.21"/>
<text text-anchor="middle" x="77" y="-199.87" font-family="Times,serif" font-size="14.00">frac</text>
<text text-anchor="middle" x="77" y="-185.87" font-family="Times,serif" font-size="14.00">~</text>
<text text-anchor="middle" x="77" y="-171.87" font-family="Times,serif" font-size="14.00">Dirichlet</text>
</g>
<!-- counts -->
<g id="node2" class="node">
<title>counts</title>
<ellipse fill="lightgrey" stroke="black" cx="77" cy="-73.36" rx="60.62" ry="35.21"/>
<text text-anchor="middle" x="77" y="-83.16" font-family="Times,serif" font-size="14.00">counts</text>
<text text-anchor="middle" x="77" y="-69.16" font-family="Times,serif" font-size="14.00">~</text>
<text text-anchor="middle" x="77" y="-55.16" font-family="Times,serif" font-size="14.00">Multinomial</text>
</g>
<!-- frac&#45;&gt;counts -->
<g id="edge1" class="edge">
<title>frac&#45;&gt;counts</title>
<path fill="none" stroke="black" d="M77,-154.65C77,-143.42 77,-130.79 77,-118.92"/>
<polygon fill="black" stroke="black" points="80.5,-118.75 77,-108.75 73.5,-118.75 80.5,-118.75"/>
</g>
</g>
</svg>
