<?xml version="1.0" encoding="UTF-8" standalone="no"?>
<!DOCTYPE svg PUBLIC "-//W3C//DTD SVG 1.1//EN"
 "http://www.w3.org/Graphics/SVG/1.1/DTD/svg11.dtd">
<!-- Generated by graphviz version 2.42.3 (20191010.1750)
 -->
<!-- Title: %3 Pages: 1 -->
<svg width="253pt" height="356pt"
 viewBox="0.00 0.00 253.30 356.13" xmlns="http://www.w3.org/2000/svg" xmlns:xlink="http://www.w3.org/1999/xlink">
<g id="graph0" class="graph" transform="scale(1 1) rotate(0) translate(4 352.13)">
<title>%3</title>
<polygon fill="white" stroke="transparent" points="-4,4 -4,-352.13 249.3,-352.13 249.3,4 -4,4"/>
<g id="clust1" class="cluster">
<title>cluster5</title>
<path fill="none" stroke="black" d="M28,-231.42C28,-231.42 112,-231.42 112,-231.42 118,-231.42 124,-237.42 124,-243.42 124,-243.42 124,-328.13 124,-328.13 124,-334.13 118,-340.13 112,-340.13 112,-340.13 28,-340.13 28,-340.13 22,-340.13 16,-334.13 16,-328.13 16,-328.13 16,-243.42 16,-243.42 16,-237.42 22,-231.42 28,-231.42"/>
<text text-anchor="middle" x="112.5" y="-238.22" font-family="Times,serif" font-size="14.00">5</text>
</g>
<g id="clust2" class="cluster">
<title>cluster10 x 5</title>
<path fill="none" stroke="black" d="M20,-8C20,-8 134,-8 134,-8 140,-8 146,-14 146,-20 146,-20 146,-211.42 146,-211.42 146,-217.42 140,-223.42 134,-223.42 134,-223.42 20,-223.42 20,-223.42 14,-223.42 8,-217.42 8,-211.42 8,-211.42 8,-20 8,-20 8,-14 14,-8 20,-8"/>
<text text-anchor="middle" x="120.5" y="-14.8" font-family="Times,serif" font-size="14.00">10 x 5</text>
</g>
<!-- frac -->
<g id="node1" class="node">
<title>frac</title>
<ellipse fill="none" stroke="black" cx="70" cy="-296.78" rx="46.5" ry="35.21"/>
<text text-anchor="middle" x="70" y="-306.58" font-family="Times,serif" font-size="14.00">frac</text>
<text text-anchor="middle" x="70" y="-292.58" font-family="Times,serif" font-size="14.00">~</text>
<text text-anchor="middle" x="70" y="-278.58" font-family="Times,serif" font-size="14.00">Dirichlet</text>
</g>
<!-- p -->
<g id="node3" class="node">
<title>p</title>
<ellipse fill="none" stroke="black" cx="77" cy="-180.07" rx="46.5" ry="35.21"/>
<text text-anchor="middle" x="77" y="-189.87" font-family="Times,serif" font-size="14.00">p</text>
<text text-anchor="middle" x="77" y="-175.87" font-family="Times,serif" font-size="14.00">~</text>
<text text-anchor="middle" x="77" y="-161.87" font-family="Times,serif" font-size="14.00">Dirichlet</text>
</g>
<!-- frac&#45;&gt;p -->
<g id="edge1" class="edge">
<title>frac&#45;&gt;p</title>
<path fill="none" stroke="black" d="M72.1,-261.36C72.79,-250.13 73.56,-237.5 74.28,-225.63"/>
<polygon fill="black" stroke="black" points="77.79,-225.65 74.9,-215.46 70.8,-225.23 77.79,-225.65"/>
</g>
<!-- conc -->
<g id="node2" class="node">
<title>conc</title>
<ellipse fill="none" stroke="black" cx="190" cy="-296.78" rx="55.1" ry="35.21"/>
<text text-anchor="middle" x="190" y="-306.58" font-family="Times,serif" font-size="14.00">conc</text>
<text text-anchor="middle" x="190" y="-292.58" font-family="Times,serif" font-size="14.00">~</text>
<text text-anchor="middle" x="190" y="-278.58" font-family="Times,serif" font-size="14.00">Lognormal</text>
</g>
<!-- conc&#45;&gt;p -->
<g id="edge2" class="edge">
<title>conc&#45;&gt;p</title>
<path fill="none" stroke="black" d="M161.76,-266.15C151.22,-255.18 139.12,-242.68 128,-231.42 122.89,-226.25 117.46,-220.81 112.11,-215.5"/>
<polygon fill="black" stroke="black" points="114.49,-212.93 104.92,-208.38 109.56,-217.91 114.49,-212.93"/>
</g>
<!-- counts -->
<g id="node4" class="node">
<title>counts</title>
<ellipse fill="lightgrey" stroke="black" cx="77" cy="-73.36" rx="60.62" ry="35.21"/>
<text text-anchor="middle" x="77" y="-83.16" font-family="Times,serif" font-size="14.00">counts</text>
<text text-anchor="middle" x="77" y="-69.16" font-family="Times,serif" font-size="14.00">~</text>
<text text-anchor="middle" x="77" y="-55.16" font-family="Times,serif" font-size="14.00">Multinomial</text>
</g>
<!-- p&#45;&gt;counts -->
<g id="edge3" class="edge">
<title>p&#45;&gt;counts</title>
<path fill="none" stroke="black" d="M77,-144.49C77,-136.36 77,-127.58 77,-119.07"/>
<polygon fill="black" stroke="black" points="80.5,-118.9 77,-108.9 73.5,-118.9 80.5,-118.9"/>
</g>
</g>
</svg>
