<?xml version="1.0" encoding="UTF-8" standalone="no"?>
<!DOCTYPE svg PUBLIC "-//W3C//DTD SVG 1.1//EN"
 "http://www.w3.org/Graphics/SVG/1.1/DTD/svg11.dtd">
<!-- Generated by graphviz version 2.42.3 (20191010.1750)
 -->
<!-- Title: %3 Pages: 1 -->
<svg width="252pt" height="249pt"
 viewBox="0.00 0.00 252.30 249.42" xmlns="http://www.w3.org/2000/svg" xmlns:xlink="http://www.w3.org/1999/xlink">
<g id="graph0" class="graph" transform="scale(1 1) rotate(0) translate(4 245.42)">
<title>%3</title>
<polygon fill="white" stroke="transparent" points="-4,4 -4,-245.42 248.3,-245.42 248.3,4 -4,4"/>
<g id="clust1" class="cluster">
<title>cluster5</title>
<path fill="none" stroke="black" d="M27,-124.71C27,-124.71 111,-124.71 111,-124.71 117,-124.71 123,-130.71 123,-136.71 123,-136.71 123,-221.42 123,-221.42 123,-227.42 117,-233.42 111,-233.42 111,-233.42 27,-233.42 27,-233.42 21,-233.42 15,-227.42 15,-221.42 15,-221.42 15,-136.71 15,-136.71 15,-130.71 21,-124.71 27,-124.71"/>
<text text-anchor="middle" x="111.5" y="-131.51" font-family="Times,serif" font-size="14.00">5</text>
</g>
<g id="clust2" class="cluster">
<title>cluster10 x 5</title>
<path fill="none" stroke="black" d="M20,-8C20,-8 204,-8 204,-8 210,-8 216,-14 216,-20 216,-20 216,-104.71 216,-104.71 216,-110.71 210,-116.71 204,-116.71 204,-116.71 20,-116.71 20,-116.71 14,-116.71 8,-110.71 8,-104.71 8,-104.71 8,-20 8,-20 8,-14 14,-8 20,-8"/>
<text text-anchor="middle" x="190.5" y="-14.8" font-family="Times,serif" font-size="14.00">10 x 5</text>
</g>
<!-- frac -->
<g id="node1" class="node">
<title>frac</title>
<ellipse fill="none" stroke="black" cx="69" cy="-190.07" rx="46.5" ry="35.21"/>
<text text-anchor="middle" x="69" y="-199.87" font-family="Times,serif" font-size="14.00">frac</text>
<text text-anchor="middle" x="69" y="-185.87" font-family="Times,serif" font-size="14.00">~</text>
<text text-anchor="middle" x="69" y="-171.87" font-family="Times,serif" font-size="14.00">Dirichlet</text>
</g>
<!-- counts -->
<g id="node3" class="node">
<title>counts</title>
<ellipse fill="lightgrey" stroke="black" cx="112" cy="-73.36" rx="95.99" ry="35.21"/>
<text text-anchor="middle" x="112" y="-83.16" font-family="Times,serif" font-size="14.00">counts</text>
<text text-anchor="middle" x="112" y="-69.16" font-family="Times,serif" font-size="14.00">~</text>
<text text-anchor="middle" x="112" y="-55.16" font-family="Times,serif" font-size="14.00">DirichletMultinomial</text>
</g>
<!-- frac&#45;&gt;counts -->
<g id="edge1" class="edge">
<title>frac&#45;&gt;counts</title>
<path fill="none" stroke="black" d="M81.44,-155.89C85.86,-144.08 90.92,-130.59 95.63,-118.03"/>
<polygon fill="black" stroke="black" points="98.91,-119.25 99.14,-108.66 92.35,-116.79 98.91,-119.25"/>
</g>
<!-- conc -->
<g id="node2" class="node">
<title>conc</title>
<ellipse fill="none" stroke="black" cx="189" cy="-190.07" rx="55.1" ry="35.21"/>
<text text-anchor="middle" x="189" y="-199.87" font-family="Times,serif" font-size="14.00">conc</text>
<text text-anchor="middle" x="189" y="-185.87" font-family="Times,serif" font-size="14.00">~</text>
<text text-anchor="middle" x="189" y="-171.87" font-family="Times,serif" font-size="14.00">Lognormal</text>
</g>
<!-- conc&#45;&gt;counts -->
<g id="edge2" class="edge">
<title>conc&#45;&gt;counts</title>
<path fill="none" stroke="black" d="M167.76,-157.42C159.28,-144.8 149.41,-130.08 140.34,-116.57"/>
<polygon fill="black" stroke="black" points="143,-114.26 134.52,-107.91 137.19,-118.16 143,-114.26"/>
</g>
</g>
</svg>
